0
SECTION
2
HEADER
9
$INSUNITS
70
4
9
$ACADVER
1
AC1015
0
ENDSEC
0
SECTION
2
TABLES
0
TABLE
2
LAYER
70
6
0
LAYER
2
床
70
0
62
1
6
CONTINUOUS
0
LAYER
2
天井
70
0
62
2
6
CONTINUOUS
0
LAYER
2
壁
70
0
62
3
6
CONTINUOUS
0
LAYER
2
吸音板
70
0
62
4
6
CONTINUOUS
0
LAYER
2
src
70
0
62
5
6
CONTINUOUS
0
LAYER
2
rec
70
0
62
6
6
CONTINUOUS
0
ENDTAB
0
ENDSEC
0
SECTION
2
ENTITIES
0
3DFACE
8
床
10
0.0000
20
0.0000
30
0.0000
11
3000.0000
21
0.0000
31
0.0000
12
3000.0000
22
2600.0000
32
0.0000
13
3000.0000
23
2600.0000
33
0.0000
0
3DFACE
8
床
10
0.0000
20
0.0000
30
0.0000
11
3000.0000
21
2600.0000
31
0.0000
12
1500.0000
22
4000.0000
32
0.0000
13
1500.0000
23
4000.0000
33
0.0000
0
3DFACE
8
床
10
0.0000
20
0.0000
30
0.0000
11
1500.0000
21
4000.0000
31
0.0000
12
0.0000
22
2600.0000
32
0.0000
13
0.0000
23
2600.0000
33
0.0000
0
3DFACE
8
天井
10
0.0000
20
0.0000
30
2700.0000
11
3000.0000
21
2600.0000
31
2700.0000
12
3000.0000
22
0.0000
32
2700.0000
13
3000.0000
23
0.0000
33
2700.0000
0
3DFACE
8
天井
10
0.0000
20
0.0000
30
2700.0000
11
1500.0000
21
4000.0000
31
2700.0000
12
3000.0000
22
2600.0000
32
2700.0000
13
3000.0000
23
2600.0000
33
2700.0000
0
3DFACE
8
天井
10
0.0000
20
0.0000
30
2700.0000
11
0.0000
21
2600.0000
31
2700.0000
12
1500.0000
22
4000.0000
32
2700.0000
13
1500.0000
23
4000.0000
33
2700.0000
0
3DFACE
8
壁
10
0.0000
20
0.0000
30
0.0000
11
0.0000
21
0.0000
31
2700.0000
12
3000.0000
22
0.0000
32
2700.0000
13
3000.0000
23
0.0000
33
0.0000
0
3DFACE
8
壁
10
3000.0000
20
0.0000
30
0.0000
11
3000.0000
21
0.0000
31
2700.0000
12
3000.0000
22
2600.0000
32
2700.0000
13
3000.0000
23
2600.0000
33
0.0000
0
3DFACE
8
吸音板
10
3000.0000
20
2600.0000
30
0.0000
11
3000.0000
21
2600.0000
31
2700.0000
12
1500.0000
22
4000.0000
32
2700.0000
13
1500.0000
23
4000.0000
33
0.0000
0
3DFACE
8
吸音板
10
1500.0000
20
4000.0000
30
0.0000
11
1500.0000
21
4000.0000
31
2700.0000
12
0.0000
22
2600.0000
32
2700.0000
13
0.0000
23
2600.0000
33
0.0000
0
3DFACE
8
壁
10
0.0000
20
2600.0000
30
0.0000
11
0.0000
21
2600.0000
31
2700.0000
12
0.0000
22
0.0000
32
2700.0000
13
0.0000
23
0.0000
33
0.0000
0
POINT
8
src
10
1500.0000
20
800.0000
30
1500.0000
0
POINT
8
rec
10
1500.0000
20
2000.0000
30
1200.0000
0
POINT
8
rec
10
800.0000
20
3100.0000
30
1200.0000
0
POINT
8
rec
10
2300.0000
20
3100.0000
30
1200.0000
0
ENDSEC
0
EOF
